<svg width="512" height="512" viewBox="0 0 512 512" fill="none" xmlns="http://www.w3.org/2000/svg">
<g clip-path="url(#clip0_1_2)">
<circle cx="256" cy="256" r="256" fill="#F0B100"/>
<path d="M84.1818 372V139.273H165.545C181.758 139.273 195.129 142.076 205.659 147.682C216.189 153.212 224.03 160.674 229.182 170.068C234.333 179.386 236.909 189.727 236.909 201.091C236.909 211.091 235.129 219.348 231.568 225.864C228.083 232.379 223.462 237.53 217.705 241.318C212.023 245.106 205.848 247.909 199.182 249.727V252C206.303 252.455 213.462 254.955 220.659 259.5C227.856 264.045 233.879 270.561 238.727 279.045C243.576 287.53 246 297.909 246 310.182C246 321.848 243.348 332.341 238.045 341.659C232.742 350.977 224.371 358.364 212.932 363.818C201.492 369.273 186.606 372 168.273 372H84.1818ZM112.364 347H168.273C186.682 347 199.75 343.439 207.477 336.318C215.28 329.121 219.182 320.409 219.182 310.182C219.182 302.303 217.174 295.03 213.159 288.364C209.144 281.621 203.424 276.242 196 272.227C188.576 268.136 179.788 266.091 169.636 266.091H112.364V347ZM112.364 241.545H164.636C173.121 241.545 180.773 239.879 187.591 236.545C194.485 233.212 199.939 228.515 203.955 222.455C208.045 216.394 210.091 209.273 210.091 201.091C210.091 190.864 206.53 182.189 199.409 175.068C192.288 167.871 181 164.273 165.545 164.273H112.364V241.545ZM292.307 372V139.273H432.761V164.273H320.489V242.909H425.489V267.909H320.489V347H434.58V372H292.307Z" fill="white"/>
</g>
<defs>
<clipPath id="clip0_1_2">
<rect width="512" height="512" fill="white"/>
</clipPath>
</defs>
</svg>
